<?xml version="1.0" encoding="UTF-8" standalone="no"?>
<svg xmlns:dc="http://purl.org/dc/elements/1.1/" 
  xmlns:cc="http://creativecommons.org/ns#" 
  xmlns:rdf="http://www.w3.org/1999/02/22-rdf-syntax-ns#" 
  xmlns:svg="http://www.w3.org/2000/svg" 
  xmlns="http://www.w3.org/2000/svg" viewBox="0 0 3333.3333 3333.3333" height="3333.3333" width="3333.3333" xml:space="preserve" id="svg2" version="1.1">
  <metadata id="metadata8">
    <rdf:RDF>
      <cc:Work rdf:about="">
        <dc:format>image/svg+xml</dc:format>
        <dc:type rdf:resource="http://purl.org/dc/dcmitype/StillImage" />
      </cc:Work>
    </rdf:RDF>
  </metadata>
  <defs id="defs6">
    <clipPath id="clipPath18" clipPathUnits="userSpaceOnUse">
      <path id="path16" d="M 0,2500 H 2500 V 0 H 0 Z" />
    </clipPath>
  </defs>
  <g transform="matrix(1.3333333,0,0,-1.3333333,0,3333.3333)" id="g10">
    <g id="g12">
      <g clip-path="url(#clipPath18)" id="g14">
        <g transform="translate(1537.5557,336.5371)" id="g20">
          <path id="path22" style="fill:#231f20;fill-opacity:1;fill-rule:nonzero;stroke:none" d="M 0,0 V 853.854 C 277.792,849.504 502.15,659.667 502.15,426.939 502.15,194.198 277.792,4.35 0,0 m 12.155,906.355 c -3.907,0 -7.945,0.067 -12.155,0.202 v 179.051 H -54.004 V 0.801 H -392.161 V 1562.32 H 12.155 c 217.456,0 394.369,-147.143 394.369,-328.007 0,-180.836 -176.913,-327.958 -394.369,-327.958 M 518.527,595.721 c -23.019,51.88 -56.277,99.676 -98.849,142.062 -65.713,65.427 -150.725,114.468 -245.095,142.288 67.779,22.604 128.775,59.249 176.85,106.963 33.903,33.649 60.398,71.627 78.749,112.88 19.098,42.933 28.782,88.151 28.782,134.399 0,209.772 -200.438,380.434 -446.809,380.434 -4.169,0 -8.293,0.103 -12.66,0.212 -4.353,0.109 -8.854,0.222 -13.388,0.222 -5.016,0 -9.487,-0.142 -13.637,-0.434 h -1102.157 v -52.427 h 685.088 V -51.626 h 413.263 c 2.075,-0.061 4.874,-0.207 7.83,-0.361 4.838,-0.254 9.84,-0.516 13.74,-0.516 311.187,0 564.355,215.077 564.355,479.442 0,58.066 -12.133,114.852 -36.062,168.782" />
        </g>
      </g>
    </g>
  </g>
</svg>